PathFileType	4	(X/Y/Z)	D:\TRACE\v60_Jaco2_6-2-23\JustBodyDRS_Motion1_2-platform.trc
DataRate	CameraRate	NumFrames	NumMarkers	Units	OrigDataRate	OrigDataStartFrame	OrigNumFrames
100.00	100.00	      35	5	mm	100.00	5216	      6954
Frame#	Time	Left_Front			Right_Front			Left_Aft			Right_Aft			Post			
		X1	Y1	Z1	X2	Y2	Z2	X3	Y3	Z3	X4	Y4	Z4	X5	Y5	Z5	

5216	52.150	-850.89288	-15.89739	-644.13153	719.22021	-15.05994	-649.30054	-758.70502	24.86648	490.56454	683.38226	24.77773	499.95374	-64.74661	1270.39905	-1015.40540	
5217	52.160	-851.04181	-15.95669	-644.08453	719.17487	-15.11139	-649.34161	-758.85083	24.95503	490.51324	683.34772	24.79790	499.94299	-64.81604	1270.38794	-1015.99841	
5218	52.170	-851.12769	-16.09423	-644.14771	719.09863	-15.11969	-649.37598	-758.92590	25.05619	490.48059	683.12756	24.90242	499.95612	-64.89738	1270.28162	-1016.42767	
5219	52.180	-851.08295	-16.15290	-644.20477	718.96136	-15.06844	-649.51929	-758.92566	25.13710	490.42819	683.06885	24.98958	499.94180	-64.88020	1270.07715	-1016.63593	
5220	52.190	-850.99005	-16.17009	-644.31458	718.98096	-15.15981	-649.50452	-758.95044	25.25387	490.40442	683.17517	24.94625	499.91772	-64.89458	1269.99280	-1016.66138	
5221	52.200	-850.98163	-16.31631	-644.21753	719.31036	-15.66849	-649.41626	-758.93555	25.27926	490.46765	683.03058	25.01097	499.94254	-64.84516	1269.93140	-1016.70062	
5222	52.210	-851.09277	-16.66391	-644.10236	719.33160	-15.73895	-649.34979	-758.93604	25.26481	490.45593	683.06451	24.93176	499.92807	-64.82202	1269.82336	-1016.75531	
5223	52.220	-851.16162	-16.95464	-643.94708	719.27649	-15.56643	-649.36853	-758.93909	25.26997	490.48511	683.05298	24.98436	499.95010	-64.85635	1269.71057	-1016.66516	
5224	52.230	-851.12036	-16.84430	-644.03314	719.28503	-15.62724	-649.37091	-758.98517	25.29585	490.50497	683.23969	24.90344	499.96237	-65.02389	1269.62378	-1016.46033	
5225	52.240	-851.00763	-16.64295	-644.16241	719.21844	-15.67463	-649.49115	-758.96820	25.29903	490.44604	683.09064	24.93439	499.94922	-64.96160	1269.65100	-1016.25378	
5226	52.250	-850.91718	-16.67169	-644.13934	719.22260	-15.56520	-649.45667	-758.94257	25.32644	490.45502	683.08636	25.05456	499.93869	-64.73825	1269.73767	-1015.96661	
5227	52.260	-850.96924	-16.71976	-644.09741	719.26697	-15.61125	-649.43323	-758.92493	25.45444	490.39020	683.09149	25.09232	499.90649	-64.52944	1269.74548	-1015.64124	
5228	52.270	-850.95837	-16.88894	-644.08801	719.33167	-15.85281	-649.48108	-758.84985	25.46097	490.39175	683.10895	25.10869	499.90384	-64.62909	1269.63000	-1015.19049	
5229	52.280	-850.71661	-17.09497	-644.15051	719.56360	-15.80465	-649.49988	-758.65393	25.42872	490.36993	683.44531	25.22684	499.85977	-64.45238	1269.38110	-1015.28424	
5230	52.290	-850.23950	-17.13889	-644.13977	719.86029	-15.69217	-649.48419	-758.37231	25.46726	490.35226	683.83636	25.22419	499.85379	-64.43342	1269.26929	-1015.55573	
5231	52.300	-849.74298	-17.12266	-644.24799	719.98157	-15.66563	-649.61377	-757.96820	25.46337	490.30249	684.19110	25.24786	499.84171	-63.94559	1269.29089	-1015.86926	
5232	52.310	-849.48224	-17.08859	-644.19983	720.34302	-15.67376	-649.48706	-757.67896	25.59468	490.24969	684.35315	25.27135	499.82593	-63.57571	1269.22278	-1016.50916	
5233	52.320	-849.33533	-17.16059	-644.21637	720.58160	-15.62881	-649.51886	-757.64862	25.88506	489.99567	684.75958	25.23709	499.71387	-63.11889	1269.06848	-1017.27515	
5234	52.330	-849.23041	-17.23729	-644.16199	720.76807	-15.65006	-649.53363	-757.21875	25.45363	490.24146	684.97052	25.25948	499.66940	-63.06831	1268.96228	-1017.54987	
5235	52.340	-849.09363	-17.25672	-644.12750	720.96210	-15.79125	-649.68237	-757.08820	25.49602	490.19870	685.15491	25.23748	499.66312	-62.92817	1268.85181	-1018.01855	
5236	52.350	-848.75690	-17.22883	-644.08301	721.27142	-15.89943	-649.65198	-756.81323	25.57439	490.22025	685.29315	25.18390	499.65866	-62.77239	1268.82581	-1018.33954	
5237	52.360	-848.41840	-17.21956	-644.05444	721.62701	-15.98878	-649.65765	-756.44330	25.65373	490.24509	685.72174	25.24508	499.95313	-62.22748	1268.81799	-1018.82086	
5238	52.370	-848.13300	-17.40062	-644.28998	721.94043	-15.93551	-649.62805	-756.07623	25.55480	490.21643	686.34436	25.27980	499.76160	-61.74891	1268.85193	-1018.99487	
5239	52.380	-847.80048	-17.31893	-644.02441	722.57520	-15.89246	-649.45038	-755.74628	25.50229	490.26746	686.74500	25.29303	499.75525	-61.18353	1268.75769	-1018.77466	
5240	52.390	-847.27136	-17.38867	-644.12146	723.04480	-15.91063	-649.40564	-755.20697	25.44988	490.24374	687.00482	25.26115	499.71558	-60.70094	1268.68420	-1018.52985	
5241	52.400	-846.79816	-17.48167	-644.09167	723.55811	-15.95340	-649.42798	-755.05273	25.77664	490.05045	687.59052	25.12656	500.02518	-60.17654	1268.70959	-1018.24719	
5242	52.410	-846.12933	-17.48179	-644.07385	723.98529	-15.92097	-649.31622	-754.59991	25.63738	490.24020	687.29242	25.22820	499.74338	-59.92839	1268.76831	-1018.07281	
5243	52.420	-845.85834	-17.19961	-644.35083	724.21118	-15.96046	-649.47327	-754.13348	25.64809	490.22421	688.15118	25.22500	499.65173	-59.46033	1268.80396	-1017.76038	
5244	52.430	-845.66058	-17.02947	-644.20331	724.34302	-15.91472	-649.64563	-753.62982	25.62354	490.29697	688.85840	25.25336	499.69894	-59.28176	1268.89563	-1016.58942	
5245	52.440	-845.15668	-17.17516	-644.21887	724.93878	-15.81412	-649.72174	-753.11310	25.55691	490.26199	689.34100	25.27776	499.72607	-59.08443	1269.06592	-1016.31964	
5246	52.450	-844.81897	-17.26772	-644.16901	725.52429	-15.74222	-649.69458	-752.59576	25.48425	490.26346	689.82355	25.69345	499.91776	-58.79718	1269.20288	-1016.11536	
5247	52.460	-844.14459	-17.22357	-644.27209	725.96350	-15.69516	-649.66400	-752.17810	25.48109	490.23044	690.31317	25.34552	500.00424	-58.21787	1269.23511	-1015.85168	
5248	52.470	-843.48901	-16.98643	-644.29187	726.37854	-15.59866	-649.55365	-751.89502	25.52083	490.25064	690.55591	25.15579	500.02924	-57.54366	1269.27393	-1015.94556	
5249	52.480	-843.09680	-16.69689	-644.29547	726.74701	-15.32280	-649.48859	-751.46033	25.48614	490.32562	690.97113	25.15724	500.10406	-56.90702	1269.47009	-1016.24426	
5250	52.490	-842.53833	-16.60486	-644.12158	727.42804	-15.12789	-649.36780	-750.82025	25.44686	490.34045	691.58075	24.98827	500.12027	-56.64258	1269.60461	-1016.32690	
